M48
METRIC,TZ
T1C0.800
T2C0.800
T3C1.000
T4C1.001
T5C1.016
T6C1.199
%
G90
G05
T1
X143800Y-90600
X143800Y-93140
X143800Y-95680
X143800Y-98220
X151400Y-104600
X151420Y-90600
X151420Y-93140
X151420Y-95680
X151420Y-98220
X157600Y-95700
X160100Y-95700
T2
X153900Y-104600
T3
X129250Y-85550
X129250Y-92050
X133750Y-85550
X133750Y-92050
T4
X129860Y-99500
X132400Y-99500
X135200Y-104700
X138400Y-86340
X138400Y-96500
X145360Y-104700
T5
X143200Y-83400
X145740Y-83400
T6
X155000Y-87900
X157499Y-82861
X159999Y-87900
T0
M30
