G04 #@! TF.FileFunction,Copper,L2,Bot,Signal*
%FSLAX46Y46*%
G04 Gerber Fmt 4.6, Leading zero omitted, Abs format (unit mm)*
G04 Created by KiCad (PCBNEW 4.0.5+dfsg1-4) date Tue Aug  7 02:14:06 2018*
%MOMM*%
%LPD*%
G01*
G04 APERTURE LIST*
%ADD10C,0.100000*%
%ADD11R,1.300000X1.300000*%
%ADD12C,1.300000*%
%ADD13R,1.900000X2.000000*%
%ADD14C,1.900000*%
%ADD15R,2.032000X2.032000*%
%ADD16O,2.032000X2.032000*%
%ADD17C,1.998980*%
%ADD18C,2.499360*%
%ADD19C,1.600000*%
%ADD20O,2.300000X1.600000*%
%ADD21C,0.400000*%
%ADD22C,0.250000*%
%ADD23C,0.600000*%
%ADD24C,0.254000*%
G04 APERTURE END LIST*
D10*
D11*
X151400000Y-104600000D03*
D12*
X153900000Y-104600000D03*
D11*
X157600000Y-95700000D03*
D12*
X160100000Y-95700000D03*
D13*
X132400000Y-99500000D03*
D14*
X129860000Y-99500000D03*
D15*
X143200000Y-83400000D03*
D16*
X145740000Y-83400000D03*
D17*
X138400000Y-96500000D03*
X138400000Y-86340000D03*
X135200000Y-104700000D03*
X145360000Y-104700000D03*
D18*
X157499360Y-82860640D03*
X159998720Y-87900000D03*
X155000000Y-87900000D03*
D19*
X129250000Y-92050000D03*
X133750000Y-92050000D03*
X129250000Y-85550000D03*
X133750000Y-85550000D03*
D20*
X143800000Y-90600000D03*
X143800000Y-93140000D03*
X143800000Y-95680000D03*
X143800000Y-98220000D03*
X151420000Y-98220000D03*
X151420000Y-95680000D03*
X151420000Y-93140000D03*
X151420000Y-90600000D03*
D21*
X128300000Y-100460000D02*
X128440000Y-100460000D01*
X151420000Y-98220000D02*
X151420000Y-104580000D01*
X151420000Y-104580000D02*
X151400000Y-104600000D01*
D22*
X151420000Y-104580000D02*
X151400000Y-104600000D01*
D21*
X157600000Y-95700000D02*
X157600000Y-82961280D01*
X157600000Y-82961280D02*
X157499360Y-82860640D01*
X157600000Y-95700000D02*
X151440000Y-95700000D01*
X151440000Y-95700000D02*
X151420000Y-95680000D01*
D22*
X157499360Y-82860640D02*
X157499360Y-95599360D01*
X157499360Y-95599360D02*
X157600000Y-95700000D01*
X151440000Y-95700000D02*
X151420000Y-95680000D01*
D21*
X129860000Y-99500000D02*
X129860000Y-103360000D01*
X131200000Y-104700000D02*
X135200000Y-104700000D01*
X129860000Y-103360000D02*
X131200000Y-104700000D01*
D23*
X138400000Y-96500000D02*
X138500000Y-96500000D01*
X138500000Y-96500000D02*
X140220000Y-98220000D01*
X140220000Y-98220000D02*
X143800000Y-98220000D01*
X143800000Y-98220000D02*
X151420000Y-90600000D01*
X151420000Y-90600000D02*
X152300000Y-90600000D01*
X152300000Y-90600000D02*
X155000000Y-87900000D01*
X151420000Y-90600000D02*
X151420000Y-89080000D01*
X151420000Y-89080000D02*
X145740000Y-83400000D01*
D22*
X155000000Y-87900000D02*
X154120000Y-87900000D01*
D21*
X138400000Y-86340000D02*
X138400000Y-88200000D01*
X135400000Y-90400000D02*
X133750000Y-92050000D01*
X136200000Y-90400000D02*
X135400000Y-90400000D01*
X138400000Y-88200000D02*
X136200000Y-90400000D01*
X133750000Y-92050000D02*
X139050000Y-92050000D01*
X140140000Y-93140000D02*
X143800000Y-93140000D01*
X139050000Y-92050000D02*
X140140000Y-93140000D01*
X143800000Y-93140000D02*
X143500000Y-93140000D01*
X145360000Y-104700000D02*
X145360000Y-101460000D01*
X142620000Y-94500000D02*
X143800000Y-95680000D01*
X136400000Y-94500000D02*
X142620000Y-94500000D01*
X134900000Y-96000000D02*
X136400000Y-94500000D01*
X134900000Y-99300000D02*
X134900000Y-96000000D01*
X135600000Y-100000000D02*
X134900000Y-99300000D01*
X143900000Y-100000000D02*
X135600000Y-100000000D01*
X145360000Y-101460000D02*
X143900000Y-100000000D01*
D24*
G36*
X162873000Y-107573000D02*
X125527000Y-107573000D01*
X125527000Y-100460000D01*
X127465000Y-100460000D01*
X127528561Y-100779541D01*
X127709566Y-101050434D01*
X127980459Y-101231439D01*
X128300000Y-101295000D01*
X128440000Y-101295000D01*
X128759541Y-101231439D01*
X129025000Y-101054065D01*
X129025000Y-103360000D01*
X129088561Y-103679541D01*
X129182413Y-103820000D01*
X129269566Y-103950434D01*
X130609566Y-105290434D01*
X130880459Y-105471439D01*
X131200000Y-105535000D01*
X133776493Y-105535000D01*
X133813538Y-105624655D01*
X134272927Y-106084846D01*
X134873453Y-106334206D01*
X135523694Y-106334774D01*
X136124655Y-106086462D01*
X136584846Y-105627073D01*
X136834206Y-105026547D01*
X136834774Y-104376306D01*
X136586462Y-103775345D01*
X136127073Y-103315154D01*
X135526547Y-103065794D01*
X134876306Y-103065226D01*
X134275345Y-103313538D01*
X133815154Y-103772927D01*
X133776922Y-103865000D01*
X131545868Y-103865000D01*
X130695000Y-103014132D01*
X130695000Y-100869957D01*
X130756657Y-100844481D01*
X130861867Y-100739455D01*
X130911673Y-100859698D01*
X131090301Y-101038327D01*
X131323690Y-101135000D01*
X132114250Y-101135000D01*
X132273000Y-100976250D01*
X132273000Y-99627000D01*
X132527000Y-99627000D01*
X132527000Y-100976250D01*
X132685750Y-101135000D01*
X133476310Y-101135000D01*
X133709699Y-101038327D01*
X133888327Y-100859698D01*
X133985000Y-100626309D01*
X133985000Y-99785750D01*
X133826250Y-99627000D01*
X132527000Y-99627000D01*
X132273000Y-99627000D01*
X132253000Y-99627000D01*
X132253000Y-99373000D01*
X132273000Y-99373000D01*
X132273000Y-98023750D01*
X132527000Y-98023750D01*
X132527000Y-99373000D01*
X133826250Y-99373000D01*
X133985000Y-99214250D01*
X133985000Y-98373691D01*
X133888327Y-98140302D01*
X133709699Y-97961673D01*
X133476310Y-97865000D01*
X132685750Y-97865000D01*
X132527000Y-98023750D01*
X132273000Y-98023750D01*
X132114250Y-97865000D01*
X131323690Y-97865000D01*
X131090301Y-97961673D01*
X130911673Y-98140302D01*
X130861988Y-98260251D01*
X130759003Y-98157086D01*
X130176659Y-97915276D01*
X129546107Y-97914725D01*
X128963343Y-98155519D01*
X128517086Y-98600997D01*
X128275276Y-99183341D01*
X128274886Y-99629996D01*
X127980459Y-99688561D01*
X127709566Y-99869566D01*
X127528561Y-100140459D01*
X127465000Y-100460000D01*
X125527000Y-100460000D01*
X125527000Y-93057745D01*
X128421861Y-93057745D01*
X128495995Y-93303864D01*
X129033223Y-93496965D01*
X129603454Y-93469778D01*
X130004005Y-93303864D01*
X130078139Y-93057745D01*
X129250000Y-92229605D01*
X128421861Y-93057745D01*
X125527000Y-93057745D01*
X125527000Y-91833223D01*
X127803035Y-91833223D01*
X127830222Y-92403454D01*
X127996136Y-92804005D01*
X128242255Y-92878139D01*
X129070395Y-92050000D01*
X129429605Y-92050000D01*
X130257745Y-92878139D01*
X130503864Y-92804005D01*
X130672735Y-92334187D01*
X132314752Y-92334187D01*
X132532757Y-92861800D01*
X132936077Y-93265824D01*
X133463309Y-93484750D01*
X134034187Y-93485248D01*
X134561800Y-93267243D01*
X134944710Y-92885000D01*
X138704132Y-92885000D01*
X139484132Y-93665000D01*
X136400000Y-93665000D01*
X136080459Y-93728561D01*
X135809566Y-93909566D01*
X134309566Y-95409566D01*
X134128561Y-95680459D01*
X134065000Y-96000000D01*
X134065000Y-99300000D01*
X134128561Y-99619541D01*
X134258423Y-99813893D01*
X134309566Y-99890434D01*
X135009565Y-100590434D01*
X135145013Y-100680937D01*
X135280459Y-100771439D01*
X135600000Y-100835000D01*
X143554132Y-100835000D01*
X144525000Y-101805868D01*
X144525000Y-103276493D01*
X144435345Y-103313538D01*
X143975154Y-103772927D01*
X143725794Y-104373453D01*
X143725226Y-105023694D01*
X143973538Y-105624655D01*
X144432927Y-106084846D01*
X145033453Y-106334206D01*
X145683694Y-106334774D01*
X146284655Y-106086462D01*
X146744846Y-105627073D01*
X146994206Y-105026547D01*
X146994774Y-104376306D01*
X146746462Y-103775345D01*
X146287073Y-103315154D01*
X146195000Y-103276922D01*
X146195000Y-101460000D01*
X146131439Y-101140459D01*
X145950434Y-100869566D01*
X144644468Y-99563600D01*
X144734121Y-99545767D01*
X145199668Y-99234698D01*
X145510737Y-98769151D01*
X145619970Y-98220000D01*
X145537400Y-97804890D01*
X149699951Y-93642339D01*
X149709263Y-93689151D01*
X150020332Y-94154698D01*
X150402418Y-94410000D01*
X150020332Y-94665302D01*
X149709263Y-95130849D01*
X149600030Y-95680000D01*
X149709263Y-96229151D01*
X150020332Y-96694698D01*
X150402418Y-96950000D01*
X150020332Y-97205302D01*
X149709263Y-97670849D01*
X149600030Y-98220000D01*
X149709263Y-98769151D01*
X150020332Y-99234698D01*
X150485879Y-99545767D01*
X150585000Y-99565483D01*
X150585000Y-103333607D01*
X150514683Y-103346838D01*
X150298559Y-103485910D01*
X150153569Y-103698110D01*
X150102560Y-103950000D01*
X150102560Y-105250000D01*
X150146838Y-105485317D01*
X150285910Y-105701441D01*
X150498110Y-105846431D01*
X150750000Y-105897440D01*
X152050000Y-105897440D01*
X152285317Y-105853162D01*
X152501441Y-105714090D01*
X152646431Y-105501890D01*
X152647012Y-105499016D01*
X153180590Y-105499016D01*
X153236271Y-105729611D01*
X153719078Y-105897622D01*
X154229428Y-105868083D01*
X154563729Y-105729611D01*
X154619410Y-105499016D01*
X153900000Y-104779605D01*
X153180590Y-105499016D01*
X152647012Y-105499016D01*
X152697440Y-105250000D01*
X152697440Y-105087615D01*
X152770389Y-105263729D01*
X153000984Y-105319410D01*
X153720395Y-104600000D01*
X154079605Y-104600000D01*
X154799016Y-105319410D01*
X155029611Y-105263729D01*
X155197622Y-104780922D01*
X155168083Y-104270572D01*
X155029611Y-103936271D01*
X154799016Y-103880590D01*
X154079605Y-104600000D01*
X153720395Y-104600000D01*
X153000984Y-103880590D01*
X152770389Y-103936271D01*
X152697440Y-104145902D01*
X152697440Y-103950000D01*
X152653162Y-103714683D01*
X152644347Y-103700984D01*
X153180590Y-103700984D01*
X153900000Y-104420395D01*
X154619410Y-103700984D01*
X154563729Y-103470389D01*
X154080922Y-103302378D01*
X153570572Y-103331917D01*
X153236271Y-103470389D01*
X153180590Y-103700984D01*
X152644347Y-103700984D01*
X152514090Y-103498559D01*
X152301890Y-103353569D01*
X152255000Y-103344074D01*
X152255000Y-99565483D01*
X152354121Y-99545767D01*
X152819668Y-99234698D01*
X153130737Y-98769151D01*
X153239970Y-98220000D01*
X153130737Y-97670849D01*
X152819668Y-97205302D01*
X152437582Y-96950000D01*
X152819668Y-96694698D01*
X152926375Y-96535000D01*
X156337370Y-96535000D01*
X156346838Y-96585317D01*
X156485910Y-96801441D01*
X156698110Y-96946431D01*
X156950000Y-96997440D01*
X158250000Y-96997440D01*
X158485317Y-96953162D01*
X158701441Y-96814090D01*
X158846431Y-96601890D01*
X158847012Y-96599016D01*
X159380590Y-96599016D01*
X159436271Y-96829611D01*
X159919078Y-96997622D01*
X160429428Y-96968083D01*
X160763729Y-96829611D01*
X160819410Y-96599016D01*
X160100000Y-95879605D01*
X159380590Y-96599016D01*
X158847012Y-96599016D01*
X158897440Y-96350000D01*
X158897440Y-96187615D01*
X158970389Y-96363729D01*
X159200984Y-96419410D01*
X159920395Y-95700000D01*
X160279605Y-95700000D01*
X160999016Y-96419410D01*
X161229611Y-96363729D01*
X161397622Y-95880922D01*
X161368083Y-95370572D01*
X161229611Y-95036271D01*
X160999016Y-94980590D01*
X160279605Y-95700000D01*
X159920395Y-95700000D01*
X159200984Y-94980590D01*
X158970389Y-95036271D01*
X158897440Y-95245902D01*
X158897440Y-95050000D01*
X158853162Y-94814683D01*
X158844347Y-94800984D01*
X159380590Y-94800984D01*
X160100000Y-95520395D01*
X160819410Y-94800984D01*
X160763729Y-94570389D01*
X160280922Y-94402378D01*
X159770572Y-94431917D01*
X159436271Y-94570389D01*
X159380590Y-94800984D01*
X158844347Y-94800984D01*
X158714090Y-94598559D01*
X158501890Y-94453569D01*
X158435000Y-94440023D01*
X158435000Y-89001218D01*
X158929741Y-89496822D01*
X159622189Y-89784352D01*
X160371961Y-89785006D01*
X161064911Y-89498686D01*
X161595542Y-88968979D01*
X161883072Y-88276531D01*
X161883726Y-87526759D01*
X161597406Y-86833809D01*
X161067699Y-86303178D01*
X160375251Y-86015648D01*
X159625479Y-86014994D01*
X158932529Y-86301314D01*
X158435000Y-86797977D01*
X158435000Y-84513268D01*
X158565551Y-84459326D01*
X159096182Y-83929619D01*
X159383712Y-83237171D01*
X159384366Y-82487399D01*
X159098046Y-81794449D01*
X158568339Y-81263818D01*
X157875891Y-80976288D01*
X157126119Y-80975634D01*
X156433169Y-81261954D01*
X155902538Y-81791661D01*
X155615008Y-82484109D01*
X155614354Y-83233881D01*
X155900674Y-83926831D01*
X156430381Y-84457462D01*
X156739360Y-84585761D01*
X156739360Y-87174267D01*
X156598686Y-86833809D01*
X156068979Y-86303178D01*
X155376531Y-86015648D01*
X154626759Y-86014994D01*
X153933809Y-86301314D01*
X153403178Y-86831021D01*
X153115648Y-87523469D01*
X153114994Y-88273241D01*
X153170393Y-88407317D01*
X152355000Y-89222710D01*
X152355000Y-89080000D01*
X152283827Y-88722191D01*
X152081145Y-88418855D01*
X147341830Y-83679540D01*
X147391000Y-83432345D01*
X147391000Y-83367655D01*
X147265325Y-82735845D01*
X146907433Y-82200222D01*
X146371810Y-81842330D01*
X145740000Y-81716655D01*
X145108190Y-81842330D01*
X144771999Y-82066966D01*
X144754327Y-82024302D01*
X144575699Y-81845673D01*
X144342310Y-81749000D01*
X143485750Y-81749000D01*
X143327000Y-81907750D01*
X143327000Y-83273000D01*
X143347000Y-83273000D01*
X143347000Y-83527000D01*
X143327000Y-83527000D01*
X143327000Y-84892250D01*
X143485750Y-85051000D01*
X144342310Y-85051000D01*
X144575699Y-84954327D01*
X144754327Y-84775698D01*
X144771999Y-84733034D01*
X145108190Y-84957670D01*
X145740000Y-85083345D01*
X146041152Y-85023442D01*
X150369623Y-89351913D01*
X150020332Y-89585302D01*
X149709263Y-90050849D01*
X149600030Y-90600000D01*
X149682600Y-91015110D01*
X145520049Y-95177661D01*
X145510737Y-95130849D01*
X145199668Y-94665302D01*
X144817582Y-94410000D01*
X145199668Y-94154698D01*
X145510737Y-93689151D01*
X145619970Y-93140000D01*
X145510737Y-92590849D01*
X145199668Y-92125302D01*
X144821849Y-91872851D01*
X145254500Y-91524896D01*
X145524367Y-91031819D01*
X145541904Y-90949039D01*
X145419915Y-90727000D01*
X143927000Y-90727000D01*
X143927000Y-90747000D01*
X143673000Y-90747000D01*
X143673000Y-90727000D01*
X142180085Y-90727000D01*
X142058096Y-90949039D01*
X142075633Y-91031819D01*
X142345500Y-91524896D01*
X142778151Y-91872851D01*
X142400332Y-92125302D01*
X142280261Y-92305000D01*
X140485868Y-92305000D01*
X139640434Y-91459566D01*
X139369541Y-91278561D01*
X139050000Y-91215000D01*
X136300546Y-91215000D01*
X136519541Y-91171439D01*
X136790434Y-90990434D01*
X137529907Y-90250961D01*
X142058096Y-90250961D01*
X142180085Y-90473000D01*
X143673000Y-90473000D01*
X143673000Y-89165000D01*
X143927000Y-89165000D01*
X143927000Y-90473000D01*
X145419915Y-90473000D01*
X145541904Y-90250961D01*
X145524367Y-90168181D01*
X145254500Y-89675104D01*
X144816483Y-89322834D01*
X144277000Y-89165000D01*
X143927000Y-89165000D01*
X143673000Y-89165000D01*
X143323000Y-89165000D01*
X142783517Y-89322834D01*
X142345500Y-89675104D01*
X142075633Y-90168181D01*
X142058096Y-90250961D01*
X137529907Y-90250961D01*
X138990434Y-88790434D01*
X139171439Y-88519541D01*
X139235000Y-88200000D01*
X139235000Y-87763507D01*
X139324655Y-87726462D01*
X139784846Y-87267073D01*
X140034206Y-86666547D01*
X140034774Y-86016306D01*
X139786462Y-85415345D01*
X139327073Y-84955154D01*
X138726547Y-84705794D01*
X138076306Y-84705226D01*
X137475345Y-84953538D01*
X137015154Y-85412927D01*
X136765794Y-86013453D01*
X136765226Y-86663694D01*
X137013538Y-87264655D01*
X137472927Y-87724846D01*
X137565000Y-87763078D01*
X137565000Y-87854132D01*
X135854132Y-89565000D01*
X135400000Y-89565000D01*
X135080459Y-89628561D01*
X134846323Y-89785006D01*
X134809566Y-89809566D01*
X134003911Y-90615221D01*
X133465813Y-90614752D01*
X132938200Y-90832757D01*
X132534176Y-91236077D01*
X132315250Y-91763309D01*
X132314752Y-92334187D01*
X130672735Y-92334187D01*
X130696965Y-92266777D01*
X130669778Y-91696546D01*
X130503864Y-91295995D01*
X130257745Y-91221861D01*
X129429605Y-92050000D01*
X129070395Y-92050000D01*
X128242255Y-91221861D01*
X127996136Y-91295995D01*
X127803035Y-91833223D01*
X125527000Y-91833223D01*
X125527000Y-91042255D01*
X128421861Y-91042255D01*
X129250000Y-91870395D01*
X130078139Y-91042255D01*
X130004005Y-90796136D01*
X129466777Y-90603035D01*
X128896546Y-90630222D01*
X128495995Y-90796136D01*
X128421861Y-91042255D01*
X125527000Y-91042255D01*
X125527000Y-85834187D01*
X127814752Y-85834187D01*
X128032757Y-86361800D01*
X128436077Y-86765824D01*
X128963309Y-86984750D01*
X129534187Y-86985248D01*
X130061800Y-86767243D01*
X130465824Y-86363923D01*
X130684750Y-85836691D01*
X130684752Y-85834187D01*
X132314752Y-85834187D01*
X132532757Y-86361800D01*
X132936077Y-86765824D01*
X133463309Y-86984750D01*
X134034187Y-86985248D01*
X134561800Y-86767243D01*
X134965824Y-86363923D01*
X135184750Y-85836691D01*
X135185248Y-85265813D01*
X134967243Y-84738200D01*
X134563923Y-84334176D01*
X134036691Y-84115250D01*
X133465813Y-84114752D01*
X132938200Y-84332757D01*
X132534176Y-84736077D01*
X132315250Y-85263309D01*
X132314752Y-85834187D01*
X130684752Y-85834187D01*
X130685248Y-85265813D01*
X130467243Y-84738200D01*
X130063923Y-84334176D01*
X129536691Y-84115250D01*
X128965813Y-84114752D01*
X128438200Y-84332757D01*
X128034176Y-84736077D01*
X127815250Y-85263309D01*
X127814752Y-85834187D01*
X125527000Y-85834187D01*
X125527000Y-83685750D01*
X141549000Y-83685750D01*
X141549000Y-84542309D01*
X141645673Y-84775698D01*
X141824301Y-84954327D01*
X142057690Y-85051000D01*
X142914250Y-85051000D01*
X143073000Y-84892250D01*
X143073000Y-83527000D01*
X141707750Y-83527000D01*
X141549000Y-83685750D01*
X125527000Y-83685750D01*
X125527000Y-82257691D01*
X141549000Y-82257691D01*
X141549000Y-83114250D01*
X141707750Y-83273000D01*
X143073000Y-83273000D01*
X143073000Y-81907750D01*
X142914250Y-81749000D01*
X142057690Y-81749000D01*
X141824301Y-81845673D01*
X141645673Y-82024302D01*
X141549000Y-82257691D01*
X125527000Y-82257691D01*
X125527000Y-80827000D01*
X162873000Y-80827000D01*
X162873000Y-107573000D01*
X162873000Y-107573000D01*
G37*
X162873000Y-107573000D02*
X125527000Y-107573000D01*
X125527000Y-100460000D01*
X127465000Y-100460000D01*
X127528561Y-100779541D01*
X127709566Y-101050434D01*
X127980459Y-101231439D01*
X128300000Y-101295000D01*
X128440000Y-101295000D01*
X128759541Y-101231439D01*
X129025000Y-101054065D01*
X129025000Y-103360000D01*
X129088561Y-103679541D01*
X129182413Y-103820000D01*
X129269566Y-103950434D01*
X130609566Y-105290434D01*
X130880459Y-105471439D01*
X131200000Y-105535000D01*
X133776493Y-105535000D01*
X133813538Y-105624655D01*
X134272927Y-106084846D01*
X134873453Y-106334206D01*
X135523694Y-106334774D01*
X136124655Y-106086462D01*
X136584846Y-105627073D01*
X136834206Y-105026547D01*
X136834774Y-104376306D01*
X136586462Y-103775345D01*
X136127073Y-103315154D01*
X135526547Y-103065794D01*
X134876306Y-103065226D01*
X134275345Y-103313538D01*
X133815154Y-103772927D01*
X133776922Y-103865000D01*
X131545868Y-103865000D01*
X130695000Y-103014132D01*
X130695000Y-100869957D01*
X130756657Y-100844481D01*
X130861867Y-100739455D01*
X130911673Y-100859698D01*
X131090301Y-101038327D01*
X131323690Y-101135000D01*
X132114250Y-101135000D01*
X132273000Y-100976250D01*
X132273000Y-99627000D01*
X132527000Y-99627000D01*
X132527000Y-100976250D01*
X132685750Y-101135000D01*
X133476310Y-101135000D01*
X133709699Y-101038327D01*
X133888327Y-100859698D01*
X133985000Y-100626309D01*
X133985000Y-99785750D01*
X133826250Y-99627000D01*
X132527000Y-99627000D01*
X132273000Y-99627000D01*
X132253000Y-99627000D01*
X132253000Y-99373000D01*
X132273000Y-99373000D01*
X132273000Y-98023750D01*
X132527000Y-98023750D01*
X132527000Y-99373000D01*
X133826250Y-99373000D01*
X133985000Y-99214250D01*
X133985000Y-98373691D01*
X133888327Y-98140302D01*
X133709699Y-97961673D01*
X133476310Y-97865000D01*
X132685750Y-97865000D01*
X132527000Y-98023750D01*
X132273000Y-98023750D01*
X132114250Y-97865000D01*
X131323690Y-97865000D01*
X131090301Y-97961673D01*
X130911673Y-98140302D01*
X130861988Y-98260251D01*
X130759003Y-98157086D01*
X130176659Y-97915276D01*
X129546107Y-97914725D01*
X128963343Y-98155519D01*
X128517086Y-98600997D01*
X128275276Y-99183341D01*
X128274886Y-99629996D01*
X127980459Y-99688561D01*
X127709566Y-99869566D01*
X127528561Y-100140459D01*
X127465000Y-100460000D01*
X125527000Y-100460000D01*
X125527000Y-93057745D01*
X128421861Y-93057745D01*
X128495995Y-93303864D01*
X129033223Y-93496965D01*
X129603454Y-93469778D01*
X130004005Y-93303864D01*
X130078139Y-93057745D01*
X129250000Y-92229605D01*
X128421861Y-93057745D01*
X125527000Y-93057745D01*
X125527000Y-91833223D01*
X127803035Y-91833223D01*
X127830222Y-92403454D01*
X127996136Y-92804005D01*
X128242255Y-92878139D01*
X129070395Y-92050000D01*
X129429605Y-92050000D01*
X130257745Y-92878139D01*
X130503864Y-92804005D01*
X130672735Y-92334187D01*
X132314752Y-92334187D01*
X132532757Y-92861800D01*
X132936077Y-93265824D01*
X133463309Y-93484750D01*
X134034187Y-93485248D01*
X134561800Y-93267243D01*
X134944710Y-92885000D01*
X138704132Y-92885000D01*
X139484132Y-93665000D01*
X136400000Y-93665000D01*
X136080459Y-93728561D01*
X135809566Y-93909566D01*
X134309566Y-95409566D01*
X134128561Y-95680459D01*
X134065000Y-96000000D01*
X134065000Y-99300000D01*
X134128561Y-99619541D01*
X134258423Y-99813893D01*
X134309566Y-99890434D01*
X135009565Y-100590434D01*
X135145013Y-100680937D01*
X135280459Y-100771439D01*
X135600000Y-100835000D01*
X143554132Y-100835000D01*
X144525000Y-101805868D01*
X144525000Y-103276493D01*
X144435345Y-103313538D01*
X143975154Y-103772927D01*
X143725794Y-104373453D01*
X143725226Y-105023694D01*
X143973538Y-105624655D01*
X144432927Y-106084846D01*
X145033453Y-106334206D01*
X145683694Y-106334774D01*
X146284655Y-106086462D01*
X146744846Y-105627073D01*
X146994206Y-105026547D01*
X146994774Y-104376306D01*
X146746462Y-103775345D01*
X146287073Y-103315154D01*
X146195000Y-103276922D01*
X146195000Y-101460000D01*
X146131439Y-101140459D01*
X145950434Y-100869566D01*
X144644468Y-99563600D01*
X144734121Y-99545767D01*
X145199668Y-99234698D01*
X145510737Y-98769151D01*
X145619970Y-98220000D01*
X145537400Y-97804890D01*
X149699951Y-93642339D01*
X149709263Y-93689151D01*
X150020332Y-94154698D01*
X150402418Y-94410000D01*
X150020332Y-94665302D01*
X149709263Y-95130849D01*
X149600030Y-95680000D01*
X149709263Y-96229151D01*
X150020332Y-96694698D01*
X150402418Y-96950000D01*
X150020332Y-97205302D01*
X149709263Y-97670849D01*
X149600030Y-98220000D01*
X149709263Y-98769151D01*
X150020332Y-99234698D01*
X150485879Y-99545767D01*
X150585000Y-99565483D01*
X150585000Y-103333607D01*
X150514683Y-103346838D01*
X150298559Y-103485910D01*
X150153569Y-103698110D01*
X150102560Y-103950000D01*
X150102560Y-105250000D01*
X150146838Y-105485317D01*
X150285910Y-105701441D01*
X150498110Y-105846431D01*
X150750000Y-105897440D01*
X152050000Y-105897440D01*
X152285317Y-105853162D01*
X152501441Y-105714090D01*
X152646431Y-105501890D01*
X152647012Y-105499016D01*
X153180590Y-105499016D01*
X153236271Y-105729611D01*
X153719078Y-105897622D01*
X154229428Y-105868083D01*
X154563729Y-105729611D01*
X154619410Y-105499016D01*
X153900000Y-104779605D01*
X153180590Y-105499016D01*
X152647012Y-105499016D01*
X152697440Y-105250000D01*
X152697440Y-105087615D01*
X152770389Y-105263729D01*
X153000984Y-105319410D01*
X153720395Y-104600000D01*
X154079605Y-104600000D01*
X154799016Y-105319410D01*
X155029611Y-105263729D01*
X155197622Y-104780922D01*
X155168083Y-104270572D01*
X155029611Y-103936271D01*
X154799016Y-103880590D01*
X154079605Y-104600000D01*
X153720395Y-104600000D01*
X153000984Y-103880590D01*
X152770389Y-103936271D01*
X152697440Y-104145902D01*
X152697440Y-103950000D01*
X152653162Y-103714683D01*
X152644347Y-103700984D01*
X153180590Y-103700984D01*
X153900000Y-104420395D01*
X154619410Y-103700984D01*
X154563729Y-103470389D01*
X154080922Y-103302378D01*
X153570572Y-103331917D01*
X153236271Y-103470389D01*
X153180590Y-103700984D01*
X152644347Y-103700984D01*
X152514090Y-103498559D01*
X152301890Y-103353569D01*
X152255000Y-103344074D01*
X152255000Y-99565483D01*
X152354121Y-99545767D01*
X152819668Y-99234698D01*
X153130737Y-98769151D01*
X153239970Y-98220000D01*
X153130737Y-97670849D01*
X152819668Y-97205302D01*
X152437582Y-96950000D01*
X152819668Y-96694698D01*
X152926375Y-96535000D01*
X156337370Y-96535000D01*
X156346838Y-96585317D01*
X156485910Y-96801441D01*
X156698110Y-96946431D01*
X156950000Y-96997440D01*
X158250000Y-96997440D01*
X158485317Y-96953162D01*
X158701441Y-96814090D01*
X158846431Y-96601890D01*
X158847012Y-96599016D01*
X159380590Y-96599016D01*
X159436271Y-96829611D01*
X159919078Y-96997622D01*
X160429428Y-96968083D01*
X160763729Y-96829611D01*
X160819410Y-96599016D01*
X160100000Y-95879605D01*
X159380590Y-96599016D01*
X158847012Y-96599016D01*
X158897440Y-96350000D01*
X158897440Y-96187615D01*
X158970389Y-96363729D01*
X159200984Y-96419410D01*
X159920395Y-95700000D01*
X160279605Y-95700000D01*
X160999016Y-96419410D01*
X161229611Y-96363729D01*
X161397622Y-95880922D01*
X161368083Y-95370572D01*
X161229611Y-95036271D01*
X160999016Y-94980590D01*
X160279605Y-95700000D01*
X159920395Y-95700000D01*
X159200984Y-94980590D01*
X158970389Y-95036271D01*
X158897440Y-95245902D01*
X158897440Y-95050000D01*
X158853162Y-94814683D01*
X158844347Y-94800984D01*
X159380590Y-94800984D01*
X160100000Y-95520395D01*
X160819410Y-94800984D01*
X160763729Y-94570389D01*
X160280922Y-94402378D01*
X159770572Y-94431917D01*
X159436271Y-94570389D01*
X159380590Y-94800984D01*
X158844347Y-94800984D01*
X158714090Y-94598559D01*
X158501890Y-94453569D01*
X158435000Y-94440023D01*
X158435000Y-89001218D01*
X158929741Y-89496822D01*
X159622189Y-89784352D01*
X160371961Y-89785006D01*
X161064911Y-89498686D01*
X161595542Y-88968979D01*
X161883072Y-88276531D01*
X161883726Y-87526759D01*
X161597406Y-86833809D01*
X161067699Y-86303178D01*
X160375251Y-86015648D01*
X159625479Y-86014994D01*
X158932529Y-86301314D01*
X158435000Y-86797977D01*
X158435000Y-84513268D01*
X158565551Y-84459326D01*
X159096182Y-83929619D01*
X159383712Y-83237171D01*
X159384366Y-82487399D01*
X159098046Y-81794449D01*
X158568339Y-81263818D01*
X157875891Y-80976288D01*
X157126119Y-80975634D01*
X156433169Y-81261954D01*
X155902538Y-81791661D01*
X155615008Y-82484109D01*
X155614354Y-83233881D01*
X155900674Y-83926831D01*
X156430381Y-84457462D01*
X156739360Y-84585761D01*
X156739360Y-87174267D01*
X156598686Y-86833809D01*
X156068979Y-86303178D01*
X155376531Y-86015648D01*
X154626759Y-86014994D01*
X153933809Y-86301314D01*
X153403178Y-86831021D01*
X153115648Y-87523469D01*
X153114994Y-88273241D01*
X153170393Y-88407317D01*
X152355000Y-89222710D01*
X152355000Y-89080000D01*
X152283827Y-88722191D01*
X152081145Y-88418855D01*
X147341830Y-83679540D01*
X147391000Y-83432345D01*
X147391000Y-83367655D01*
X147265325Y-82735845D01*
X146907433Y-82200222D01*
X146371810Y-81842330D01*
X145740000Y-81716655D01*
X145108190Y-81842330D01*
X144771999Y-82066966D01*
X144754327Y-82024302D01*
X144575699Y-81845673D01*
X144342310Y-81749000D01*
X143485750Y-81749000D01*
X143327000Y-81907750D01*
X143327000Y-83273000D01*
X143347000Y-83273000D01*
X143347000Y-83527000D01*
X143327000Y-83527000D01*
X143327000Y-84892250D01*
X143485750Y-85051000D01*
X144342310Y-85051000D01*
X144575699Y-84954327D01*
X144754327Y-84775698D01*
X144771999Y-84733034D01*
X145108190Y-84957670D01*
X145740000Y-85083345D01*
X146041152Y-85023442D01*
X150369623Y-89351913D01*
X150020332Y-89585302D01*
X149709263Y-90050849D01*
X149600030Y-90600000D01*
X149682600Y-91015110D01*
X145520049Y-95177661D01*
X145510737Y-95130849D01*
X145199668Y-94665302D01*
X144817582Y-94410000D01*
X145199668Y-94154698D01*
X145510737Y-93689151D01*
X145619970Y-93140000D01*
X145510737Y-92590849D01*
X145199668Y-92125302D01*
X144821849Y-91872851D01*
X145254500Y-91524896D01*
X145524367Y-91031819D01*
X145541904Y-90949039D01*
X145419915Y-90727000D01*
X143927000Y-90727000D01*
X143927000Y-90747000D01*
X143673000Y-90747000D01*
X143673000Y-90727000D01*
X142180085Y-90727000D01*
X142058096Y-90949039D01*
X142075633Y-91031819D01*
X142345500Y-91524896D01*
X142778151Y-91872851D01*
X142400332Y-92125302D01*
X142280261Y-92305000D01*
X140485868Y-92305000D01*
X139640434Y-91459566D01*
X139369541Y-91278561D01*
X139050000Y-91215000D01*
X136300546Y-91215000D01*
X136519541Y-91171439D01*
X136790434Y-90990434D01*
X137529907Y-90250961D01*
X142058096Y-90250961D01*
X142180085Y-90473000D01*
X143673000Y-90473000D01*
X143673000Y-89165000D01*
X143927000Y-89165000D01*
X143927000Y-90473000D01*
X145419915Y-90473000D01*
X145541904Y-90250961D01*
X145524367Y-90168181D01*
X145254500Y-89675104D01*
X144816483Y-89322834D01*
X144277000Y-89165000D01*
X143927000Y-89165000D01*
X143673000Y-89165000D01*
X143323000Y-89165000D01*
X142783517Y-89322834D01*
X142345500Y-89675104D01*
X142075633Y-90168181D01*
X142058096Y-90250961D01*
X137529907Y-90250961D01*
X138990434Y-88790434D01*
X139171439Y-88519541D01*
X139235000Y-88200000D01*
X139235000Y-87763507D01*
X139324655Y-87726462D01*
X139784846Y-87267073D01*
X140034206Y-86666547D01*
X140034774Y-86016306D01*
X139786462Y-85415345D01*
X139327073Y-84955154D01*
X138726547Y-84705794D01*
X138076306Y-84705226D01*
X137475345Y-84953538D01*
X137015154Y-85412927D01*
X136765794Y-86013453D01*
X136765226Y-86663694D01*
X137013538Y-87264655D01*
X137472927Y-87724846D01*
X137565000Y-87763078D01*
X137565000Y-87854132D01*
X135854132Y-89565000D01*
X135400000Y-89565000D01*
X135080459Y-89628561D01*
X134846323Y-89785006D01*
X134809566Y-89809566D01*
X134003911Y-90615221D01*
X133465813Y-90614752D01*
X132938200Y-90832757D01*
X132534176Y-91236077D01*
X132315250Y-91763309D01*
X132314752Y-92334187D01*
X130672735Y-92334187D01*
X130696965Y-92266777D01*
X130669778Y-91696546D01*
X130503864Y-91295995D01*
X130257745Y-91221861D01*
X129429605Y-92050000D01*
X129070395Y-92050000D01*
X128242255Y-91221861D01*
X127996136Y-91295995D01*
X127803035Y-91833223D01*
X125527000Y-91833223D01*
X125527000Y-91042255D01*
X128421861Y-91042255D01*
X129250000Y-91870395D01*
X130078139Y-91042255D01*
X130004005Y-90796136D01*
X129466777Y-90603035D01*
X128896546Y-90630222D01*
X128495995Y-90796136D01*
X128421861Y-91042255D01*
X125527000Y-91042255D01*
X125527000Y-85834187D01*
X127814752Y-85834187D01*
X128032757Y-86361800D01*
X128436077Y-86765824D01*
X128963309Y-86984750D01*
X129534187Y-86985248D01*
X130061800Y-86767243D01*
X130465824Y-86363923D01*
X130684750Y-85836691D01*
X130684752Y-85834187D01*
X132314752Y-85834187D01*
X132532757Y-86361800D01*
X132936077Y-86765824D01*
X133463309Y-86984750D01*
X134034187Y-86985248D01*
X134561800Y-86767243D01*
X134965824Y-86363923D01*
X135184750Y-85836691D01*
X135185248Y-85265813D01*
X134967243Y-84738200D01*
X134563923Y-84334176D01*
X134036691Y-84115250D01*
X133465813Y-84114752D01*
X132938200Y-84332757D01*
X132534176Y-84736077D01*
X132315250Y-85263309D01*
X132314752Y-85834187D01*
X130684752Y-85834187D01*
X130685248Y-85265813D01*
X130467243Y-84738200D01*
X130063923Y-84334176D01*
X129536691Y-84115250D01*
X128965813Y-84114752D01*
X128438200Y-84332757D01*
X128034176Y-84736077D01*
X127815250Y-85263309D01*
X127814752Y-85834187D01*
X125527000Y-85834187D01*
X125527000Y-83685750D01*
X141549000Y-83685750D01*
X141549000Y-84542309D01*
X141645673Y-84775698D01*
X141824301Y-84954327D01*
X142057690Y-85051000D01*
X142914250Y-85051000D01*
X143073000Y-84892250D01*
X143073000Y-83527000D01*
X141707750Y-83527000D01*
X141549000Y-83685750D01*
X125527000Y-83685750D01*
X125527000Y-82257691D01*
X141549000Y-82257691D01*
X141549000Y-83114250D01*
X141707750Y-83273000D01*
X143073000Y-83273000D01*
X143073000Y-81907750D01*
X142914250Y-81749000D01*
X142057690Y-81749000D01*
X141824301Y-81845673D01*
X141645673Y-82024302D01*
X141549000Y-82257691D01*
X125527000Y-82257691D01*
X125527000Y-80827000D01*
X162873000Y-80827000D01*
X162873000Y-107573000D01*
M02*
