G04 #@! TF.FileFunction,Legend,Top*
%FSLAX46Y46*%
G04 Gerber Fmt 4.6, Leading zero omitted, Abs format (unit mm)*
G04 Created by KiCad (PCBNEW 4.0.5+dfsg1-4) date Tue Aug  7 02:14:06 2018*
%MOMM*%
%LPD*%
G01*
G04 APERTURE LIST*
%ADD10C,0.100000*%
%ADD11C,0.150000*%
%ADD12C,0.050800*%
%ADD13C,0.152400*%
%ADD14C,0.050000*%
G04 APERTURE END LIST*
D10*
D11*
X151150000Y-103350000D02*
X154150000Y-103350000D01*
X154150000Y-105850000D02*
X151150000Y-105850000D01*
X158925000Y-93201000D02*
X158925000Y-98199000D01*
X159065000Y-93209000D02*
X159065000Y-98191000D01*
X159205000Y-93225000D02*
X159205000Y-95605000D01*
X159205000Y-95795000D02*
X159205000Y-98175000D01*
X159345000Y-93249000D02*
X159345000Y-95210000D01*
X159345000Y-96190000D02*
X159345000Y-98151000D01*
X159485000Y-93282000D02*
X159485000Y-95043000D01*
X159485000Y-96357000D02*
X159485000Y-98118000D01*
X159625000Y-93323000D02*
X159625000Y-94936000D01*
X159625000Y-96464000D02*
X159625000Y-98077000D01*
X159765000Y-93373000D02*
X159765000Y-94865000D01*
X159765000Y-96535000D02*
X159765000Y-98027000D01*
X159905000Y-93434000D02*
X159905000Y-94821000D01*
X159905000Y-96579000D02*
X159905000Y-97966000D01*
X160045000Y-93504000D02*
X160045000Y-94802000D01*
X160045000Y-96598000D02*
X160045000Y-97896000D01*
X160185000Y-93586000D02*
X160185000Y-94804000D01*
X160185000Y-96596000D02*
X160185000Y-97814000D01*
X160325000Y-93681000D02*
X160325000Y-94829000D01*
X160325000Y-96571000D02*
X160325000Y-97719000D01*
X160465000Y-93792000D02*
X160465000Y-94877000D01*
X160465000Y-96523000D02*
X160465000Y-97608000D01*
X160605000Y-93920000D02*
X160605000Y-94955000D01*
X160605000Y-96445000D02*
X160605000Y-97480000D01*
X160745000Y-94069000D02*
X160745000Y-95072000D01*
X160745000Y-96328000D02*
X160745000Y-97331000D01*
X160885000Y-94248000D02*
X160885000Y-95260000D01*
X160885000Y-96140000D02*
X160885000Y-97152000D01*
X161025000Y-94467000D02*
X161025000Y-96933000D01*
X161165000Y-94756000D02*
X161165000Y-96644000D01*
X161305000Y-95228000D02*
X161305000Y-96172000D01*
X161000000Y-95700000D02*
G75*
G03X161000000Y-95700000I-900000J0D01*
G01*
X161387500Y-95700000D02*
G75*
G03X161387500Y-95700000I-2537500J0D01*
G01*
X133614888Y-97975096D02*
G75*
G03X133630000Y-101000000I-2484888J-1524904D01*
G01*
X133630000Y-98000000D02*
X133630000Y-101000000D01*
X133647936Y-99500000D02*
G75*
G03X133647936Y-99500000I-2517936J0D01*
G01*
X144470000Y-82130000D02*
X147010000Y-82130000D01*
X141650000Y-81850000D02*
X143200000Y-81850000D01*
X144470000Y-82130000D02*
X144470000Y-84670000D01*
X143200000Y-84950000D02*
X141650000Y-84950000D01*
X141650000Y-84950000D02*
X141650000Y-81850000D01*
X144470000Y-84670000D02*
X147010000Y-84670000D01*
X147010000Y-84670000D02*
X147010000Y-82130000D01*
X137130000Y-93960000D02*
X137130000Y-88880000D01*
X137130000Y-88880000D02*
X139670000Y-88880000D01*
X139670000Y-88880000D02*
X139670000Y-93960000D01*
X139670000Y-93960000D02*
X137130000Y-93960000D01*
X138400000Y-93960000D02*
X138400000Y-95230000D01*
X138400000Y-88880000D02*
X138400000Y-87610000D01*
X137740000Y-103430000D02*
X142820000Y-103430000D01*
X142820000Y-103430000D02*
X142820000Y-105970000D01*
X142820000Y-105970000D02*
X137740000Y-105970000D01*
X137740000Y-105970000D02*
X137740000Y-103430000D01*
X137740000Y-104700000D02*
X136470000Y-104700000D01*
X142820000Y-104700000D02*
X144090000Y-104700000D01*
X157245360Y-85019640D02*
X157245360Y-84257640D01*
X157753360Y-85019640D02*
X157753360Y-84257640D01*
X157245360Y-87051640D02*
G75*
G03X159150360Y-85654640I254000J1651000D01*
G01*
X155848360Y-85527640D02*
G75*
G03X157626360Y-87051640I1651000J127000D01*
G01*
X158896360Y-86289640D02*
G75*
G03X158388360Y-84003640I-1397000J889000D01*
G01*
X156610360Y-84003640D02*
G75*
G03X156102360Y-86289640I889000J-1397000D01*
G01*
X154197360Y-89210640D02*
X154197360Y-89083640D01*
X154197360Y-85400640D02*
X154197360Y-86797640D01*
X160801360Y-89210640D02*
X160801360Y-89083640D01*
X160801360Y-85400640D02*
X160801360Y-86797640D01*
X156356360Y-88321640D02*
X156737360Y-88448640D01*
X156737360Y-88448640D02*
X157499360Y-88575640D01*
X157499360Y-88575640D02*
X158261360Y-88448640D01*
X158261360Y-88448640D02*
X158642360Y-88321640D01*
X156229360Y-87432640D02*
X158769360Y-87432640D01*
X160420360Y-86670640D02*
G75*
G03X158769360Y-82479640I-2921000J1270000D01*
G01*
X156229360Y-82479640D02*
G75*
G03X154578360Y-86670640I1270000J-2921000D01*
G01*
X159531360Y-82098640D02*
X158642360Y-82098640D01*
X156356360Y-82098640D02*
X155467360Y-82098640D01*
X159150360Y-85019640D02*
X159658360Y-85019640D01*
X159658360Y-85019640D02*
X159658360Y-85781640D01*
X159658360Y-85781640D02*
X159150360Y-85781640D01*
X155848360Y-85019640D02*
X155340360Y-85019640D01*
X155340360Y-85019640D02*
X155340360Y-85781640D01*
X155340360Y-85781640D02*
X155848360Y-85781640D01*
X158007360Y-85654640D02*
X159150360Y-85654640D01*
X158007360Y-85146640D02*
X159150360Y-85146640D01*
X156991360Y-85654640D02*
X155848360Y-85654640D01*
X156991360Y-85146640D02*
X155848360Y-85146640D01*
X157753360Y-85781640D02*
X157753360Y-87051640D01*
X157245360Y-85781640D02*
X157245360Y-87051640D01*
X156991360Y-85019640D02*
X156991360Y-85781640D01*
X156991360Y-85781640D02*
X158007360Y-85781640D01*
X158007360Y-85781640D02*
X158007360Y-85019640D01*
X158007360Y-85019640D02*
X156991360Y-85019640D01*
X155467360Y-82098640D02*
X154197360Y-83495640D01*
X154197360Y-83495640D02*
X154197360Y-85400640D01*
X159531360Y-82098640D02*
X160801360Y-83495640D01*
X160801360Y-83495640D02*
X160801360Y-85400640D01*
X160547360Y-89210640D02*
X160547360Y-89464640D01*
X160547360Y-89464640D02*
X159404360Y-89464640D01*
X159404360Y-89464640D02*
X159404360Y-89210640D01*
X154451360Y-89210640D02*
X154451360Y-89464640D01*
X154451360Y-89464640D02*
X155594360Y-89464640D01*
X155594360Y-89464640D02*
X155594360Y-89210640D01*
X154197360Y-89210640D02*
X160801360Y-89210640D01*
D12*
X128452000Y-90070000D02*
X128706000Y-90070000D01*
X128706000Y-87530000D02*
X128706000Y-90070000D01*
X128706000Y-87530000D02*
X128452000Y-87530000D01*
X134294000Y-87657000D02*
X134294000Y-90070000D01*
X134294000Y-87657000D02*
X134548000Y-87657000D01*
X134294000Y-90070000D02*
X134548000Y-90070000D01*
D13*
X134548000Y-90959000D02*
X134548000Y-90070000D01*
X128452000Y-86641000D02*
X128452000Y-87530000D01*
X128452000Y-87530000D02*
X128452000Y-90070000D01*
X128452000Y-90070000D02*
X128452000Y-90959000D01*
X134548000Y-90070000D02*
X134548000Y-87657000D01*
X134548000Y-87657000D02*
X134548000Y-86641000D01*
X132262000Y-85752000D02*
X132516000Y-85752000D01*
X130738000Y-85752000D02*
X130484000Y-85752000D01*
X132262000Y-91848000D02*
X132516000Y-91848000D01*
X130738000Y-91848000D02*
X130484000Y-91848000D01*
X133250000Y-88800000D02*
G75*
G03X133250000Y-88800000I-1750000J0D01*
G01*
D10*
X128150000Y-92650000D02*
G75*
G03X128150000Y-92650000I-250000J0D01*
G01*
D11*
X143935000Y-88305000D02*
X143935000Y-89575000D01*
X151285000Y-88305000D02*
X151285000Y-89575000D01*
X151285000Y-100515000D02*
X151285000Y-99245000D01*
X143935000Y-100515000D02*
X143935000Y-99245000D01*
X143935000Y-88305000D02*
X151285000Y-88305000D01*
X143935000Y-100515000D02*
X151285000Y-100515000D01*
X143935000Y-89575000D02*
X142650000Y-89575000D01*
X152483334Y-102457143D02*
X152435715Y-102504762D01*
X152292858Y-102552381D01*
X152197620Y-102552381D01*
X152054762Y-102504762D01*
X151959524Y-102409524D01*
X151911905Y-102314286D01*
X151864286Y-102123810D01*
X151864286Y-101980952D01*
X151911905Y-101790476D01*
X151959524Y-101695238D01*
X152054762Y-101600000D01*
X152197620Y-101552381D01*
X152292858Y-101552381D01*
X152435715Y-101600000D01*
X152483334Y-101647619D01*
X153435715Y-102552381D02*
X152864286Y-102552381D01*
X153150000Y-102552381D02*
X153150000Y-101552381D01*
X153054762Y-101695238D01*
X152959524Y-101790476D01*
X152864286Y-101838095D01*
X158683334Y-92257143D02*
X158635715Y-92304762D01*
X158492858Y-92352381D01*
X158397620Y-92352381D01*
X158254762Y-92304762D01*
X158159524Y-92209524D01*
X158111905Y-92114286D01*
X158064286Y-91923810D01*
X158064286Y-91780952D01*
X158111905Y-91590476D01*
X158159524Y-91495238D01*
X158254762Y-91400000D01*
X158397620Y-91352381D01*
X158492858Y-91352381D01*
X158635715Y-91400000D01*
X158683334Y-91447619D01*
X159064286Y-91447619D02*
X159111905Y-91400000D01*
X159207143Y-91352381D01*
X159445239Y-91352381D01*
X159540477Y-91400000D01*
X159588096Y-91447619D01*
X159635715Y-91542857D01*
X159635715Y-91638095D01*
X159588096Y-91780952D01*
X159016667Y-92352381D01*
X159635715Y-92352381D01*
X130137905Y-95888381D02*
X130137905Y-94888381D01*
X130376000Y-94888381D01*
X130518858Y-94936000D01*
X130614096Y-95031238D01*
X130661715Y-95126476D01*
X130709334Y-95316952D01*
X130709334Y-95459810D01*
X130661715Y-95650286D01*
X130614096Y-95745524D01*
X130518858Y-95840762D01*
X130376000Y-95888381D01*
X130137905Y-95888381D01*
X131661715Y-95888381D02*
X131090286Y-95888381D01*
X131376000Y-95888381D02*
X131376000Y-94888381D01*
X131280762Y-95031238D01*
X131185524Y-95126476D01*
X131090286Y-95174095D01*
X134043095Y-98047381D02*
X134043095Y-97047381D01*
X134614524Y-98047381D02*
X134185952Y-97475952D01*
X134614524Y-97047381D02*
X134043095Y-97618810D01*
X138552381Y-84138095D02*
X137552381Y-84138095D01*
X137552381Y-83757142D01*
X137600000Y-83661904D01*
X137647619Y-83614285D01*
X137742857Y-83566666D01*
X137885714Y-83566666D01*
X137980952Y-83614285D01*
X138028571Y-83661904D01*
X138076190Y-83757142D01*
X138076190Y-84138095D01*
X138552381Y-82614285D02*
X138552381Y-83185714D01*
X138552381Y-82900000D02*
X137552381Y-82900000D01*
X137695238Y-82995238D01*
X137790476Y-83090476D01*
X137838095Y-83185714D01*
X135352261Y-91337746D02*
X134876070Y-91671080D01*
X135352261Y-91909175D02*
X134352261Y-91909175D01*
X134352261Y-91528222D01*
X134399880Y-91432984D01*
X134447499Y-91385365D01*
X134542737Y-91337746D01*
X134685594Y-91337746D01*
X134780832Y-91385365D01*
X134828451Y-91432984D01*
X134876070Y-91528222D01*
X134876070Y-91909175D01*
X135352261Y-90385365D02*
X135352261Y-90956794D01*
X135352261Y-90671080D02*
X134352261Y-90671080D01*
X134495118Y-90766318D01*
X134590356Y-90861556D01*
X134637975Y-90956794D01*
X140362254Y-101652261D02*
X140028920Y-101176070D01*
X139790825Y-101652261D02*
X139790825Y-100652261D01*
X140171778Y-100652261D01*
X140267016Y-100699880D01*
X140314635Y-100747499D01*
X140362254Y-100842737D01*
X140362254Y-100985594D01*
X140314635Y-101080832D01*
X140267016Y-101128451D01*
X140171778Y-101176070D01*
X139790825Y-101176070D01*
X140743206Y-100747499D02*
X140790825Y-100699880D01*
X140886063Y-100652261D01*
X141124159Y-100652261D01*
X141219397Y-100699880D01*
X141267016Y-100747499D01*
X141314635Y-100842737D01*
X141314635Y-100937975D01*
X141267016Y-101080832D01*
X140695587Y-101652261D01*
X141314635Y-101652261D01*
X160714122Y-82043021D02*
X160380788Y-81566830D01*
X160142693Y-82043021D02*
X160142693Y-81043021D01*
X160523646Y-81043021D01*
X160618884Y-81090640D01*
X160666503Y-81138259D01*
X160714122Y-81233497D01*
X160714122Y-81376354D01*
X160666503Y-81471592D01*
X160618884Y-81519211D01*
X160523646Y-81566830D01*
X160142693Y-81566830D01*
X160999836Y-81043021D02*
X161333169Y-82043021D01*
X161666503Y-81043021D01*
X162523646Y-82043021D02*
X161952217Y-82043021D01*
X162237931Y-82043021D02*
X162237931Y-81043021D01*
X162142693Y-81185878D01*
X162047455Y-81281116D01*
X161952217Y-81328735D01*
D14*
X127082495Y-91722734D02*
X127130160Y-91579738D01*
X127130160Y-91341412D01*
X127082495Y-91246082D01*
X127034829Y-91198416D01*
X126939499Y-91150751D01*
X126844168Y-91150751D01*
X126748838Y-91198416D01*
X126701173Y-91246082D01*
X126653507Y-91341412D01*
X126605842Y-91532073D01*
X126558177Y-91627404D01*
X126510512Y-91675069D01*
X126415181Y-91722734D01*
X126319851Y-91722734D01*
X126224520Y-91675069D01*
X126176855Y-91627404D01*
X126129190Y-91532073D01*
X126129190Y-91293747D01*
X126176855Y-91150751D01*
X127130160Y-90197446D02*
X127130160Y-90769429D01*
X127130160Y-90483438D02*
X126129190Y-90483438D01*
X126272185Y-90578768D01*
X126367516Y-90674099D01*
X126415181Y-90769429D01*
D11*
X143038095Y-84832381D02*
X143038095Y-85641905D01*
X143085714Y-85737143D01*
X143133333Y-85784762D01*
X143228571Y-85832381D01*
X143419048Y-85832381D01*
X143514286Y-85784762D01*
X143561905Y-85737143D01*
X143609524Y-85641905D01*
X143609524Y-84832381D01*
X144609524Y-85832381D02*
X144038095Y-85832381D01*
X144323809Y-85832381D02*
X144323809Y-84832381D01*
X144228571Y-84975238D01*
X144133333Y-85070476D01*
X144038095Y-85118095D01*
M02*
